<mxfile host="app.diagrams.net" agent="Mozilla/5.0 (Windows NT 10.0; Win64; x64; rv:138.0) Gecko/20100101 Firefox/138.0" version="27.0.6">
  <diagram name="Strona-1" id="oIqjvW4xun7wDWsJmucB">
    <mxGraphModel dx="1426" dy="786" grid="1" gridSize="10" guides="1" tooltips="1" connect="1" arrows="1" fold="1" page="1" pageScale="1" pageWidth="827" pageHeight="1169" math="0" shadow="0">
      <root>
        <mxCell id="0" />
        <mxCell id="1" parent="0" />
        <mxCell id="axN4tA1za8_WEL22JxkP-1" value="Personel bezpieczeństwa" style="shape=umlActor;verticalLabelPosition=bottom;verticalAlign=top;html=1;" vertex="1" parent="1">
          <mxGeometry x="290" y="570" width="30" height="60" as="geometry" />
        </mxCell>
        <mxCell id="axN4tA1za8_WEL22JxkP-2" value="Władze regulacyjne" style="shape=umlActor;verticalLabelPosition=bottom;verticalAlign=top;html=1;" vertex="1" parent="1">
          <mxGeometry x="290" y="490" width="30" height="60" as="geometry" />
        </mxCell>
        <mxCell id="axN4tA1za8_WEL22JxkP-3" value="Zespół wsparcia IT" style="shape=umlActor;verticalLabelPosition=bottom;verticalAlign=top;html=1;" vertex="1" parent="1">
          <mxGeometry x="290" y="400" width="30" height="60" as="geometry" />
        </mxCell>
        <mxCell id="axN4tA1za8_WEL22JxkP-4" value="Zarządzanie kasynem" style="shape=umlActor;verticalLabelPosition=bottom;verticalAlign=top;html=1;" vertex="1" parent="1">
          <mxGeometry x="290" y="310" width="30" height="60" as="geometry" />
        </mxCell>
        <mxCell id="axN4tA1za8_WEL22JxkP-5" value="Klienci" style="shape=umlActor;verticalLabelPosition=bottom;verticalAlign=top;html=1;" vertex="1" parent="1">
          <mxGeometry x="290" y="230" width="30" height="60" as="geometry" />
        </mxCell>
        <mxCell id="axN4tA1za8_WEL22JxkP-8" value="System Sieci Kasyn" style="html=1;whiteSpace=wrap;verticalAlign=top;" vertex="1" parent="1">
          <mxGeometry x="410" y="170" width="310" height="540" as="geometry" />
        </mxCell>
        <mxCell id="axN4tA1za8_WEL22JxkP-9" value="&lt;div&gt;&lt;code style=&quot;background: transparent; text-shadow: rgba(0, 0, 0, 0.3) 0px 1px; font-family: &amp;quot;Fira Code&amp;quot;, &amp;quot;Fira Mono&amp;quot;, Menlo, Consolas, &amp;quot;DejaVu Sans Mono&amp;quot;, monospace; direction: ltr; text-align: left; white-space: pre; word-spacing: normal; word-break: normal; line-height: 1.5; tab-size: 2; hyphens: none; color: light-dark(rgb(0, 0, 0), rgb(255, 255, 255));&quot; class=&quot;language-mermaid&quot;&gt;&lt;span&gt;&lt;span class=&quot;token text&quot;&gt;Zarządzanie Lokalizacjami i&lt;/span&gt;&lt;/span&gt;&lt;/code&gt;&lt;/div&gt;&lt;div&gt;&lt;code style=&quot;background: transparent; text-shadow: rgba(0, 0, 0, 0.3) 0px 1px; font-family: &amp;quot;Fira Code&amp;quot;, &amp;quot;Fira Mono&amp;quot;, Menlo, Consolas, &amp;quot;DejaVu Sans Mono&amp;quot;, monospace; direction: ltr; text-align: left; white-space: pre; word-spacing: normal; word-break: normal; line-height: 1.5; tab-size: 2; hyphens: none; color: light-dark(rgb(0, 0, 0), rgb(255, 255, 255));&quot; class=&quot;language-mermaid&quot;&gt;&lt;span&gt;&lt;span class=&quot;token text&quot;&gt; Wyposażeniem&lt;/span&gt;&lt;/span&gt;&lt;/code&gt;&lt;/div&gt;" style="html=1;whiteSpace=wrap;" vertex="1" parent="1">
          <mxGeometry x="470" y="230" width="190" height="50" as="geometry" />
        </mxCell>
        <mxCell id="axN4tA1za8_WEL22JxkP-10" value="&lt;div&gt;&lt;code style=&quot;background: transparent; text-shadow: rgba(0, 0, 0, 0.3) 0px 1px; font-family: &amp;quot;Fira Code&amp;quot;, &amp;quot;Fira Mono&amp;quot;, Menlo, Consolas, &amp;quot;DejaVu Sans Mono&amp;quot;, monospace; direction: ltr; text-align: left; white-space: pre; word-spacing: normal; word-break: normal; line-height: 1.5; tab-size: 2; hyphens: none; color: light-dark(rgb(0, 0, 0), rgb(255, 255, 255));&quot; class=&quot;language-mermaid&quot;&gt;&lt;span&gt;&lt;span class=&quot;token text&quot;&gt;Rezerwacja Gier i&lt;/span&gt;&lt;/span&gt;&lt;/code&gt;&lt;/div&gt;&lt;div&gt;&lt;code style=&quot;background: transparent; text-shadow: rgba(0, 0, 0, 0.3) 0px 1px; font-family: &amp;quot;Fira Code&amp;quot;, &amp;quot;Fira Mono&amp;quot;, Menlo, Consolas, &amp;quot;DejaVu Sans Mono&amp;quot;, monospace; direction: ltr; text-align: left; white-space: pre; word-spacing: normal; word-break: normal; line-height: 1.5; tab-size: 2; hyphens: none; color: light-dark(rgb(0, 0, 0), rgb(255, 255, 255));&quot; class=&quot;language-mermaid&quot;&gt;&lt;span&gt;&lt;span class=&quot;token text&quot;&gt; Alokacja Miejsc&lt;/span&gt;&lt;/span&gt;&lt;/code&gt;&lt;/div&gt;" style="html=1;whiteSpace=wrap;" vertex="1" parent="1">
          <mxGeometry x="470" y="320" width="190" height="50" as="geometry" />
        </mxCell>
        <mxCell id="axN4tA1za8_WEL22JxkP-11" value="&lt;div&gt;&lt;code style=&quot;background: transparent; text-shadow: rgba(0, 0, 0, 0.3) 0px 1px; font-family: &amp;quot;Fira Code&amp;quot;, &amp;quot;Fira Mono&amp;quot;, Menlo, Consolas, &amp;quot;DejaVu Sans Mono&amp;quot;, monospace; direction: ltr; text-align: left; white-space: pre; word-spacing: normal; word-break: normal; line-height: 1.5; tab-size: 2; hyphens: none;&quot; class=&quot;language-mermaid&quot;&gt;&lt;span&gt;&lt;span class=&quot;token text&quot;&gt;Zarządzanie Finansami i&lt;/span&gt;&lt;/span&gt;&lt;/code&gt;&lt;/div&gt;&lt;div&gt;&lt;code style=&quot;background: transparent; text-shadow: rgba(0, 0, 0, 0.3) 0px 1px; font-family: &amp;quot;Fira Code&amp;quot;, &amp;quot;Fira Mono&amp;quot;, Menlo, Consolas, &amp;quot;DejaVu Sans Mono&amp;quot;, monospace; direction: ltr; text-align: left; white-space: pre; word-spacing: normal; word-break: normal; line-height: 1.5; tab-size: 2; hyphens: none;&quot; class=&quot;language-mermaid&quot;&gt;&lt;span&gt;&lt;span class=&quot;token text&quot;&gt;Raportowanie&lt;/span&gt;&lt;/span&gt;&lt;/code&gt;&lt;/div&gt;" style="html=1;whiteSpace=wrap;" vertex="1" parent="1">
          <mxGeometry x="470" y="410" width="190" height="50" as="geometry" />
        </mxCell>
        <mxCell id="axN4tA1za8_WEL22JxkP-23" style="edgeStyle=orthogonalEdgeStyle;rounded=0;orthogonalLoop=1;jettySize=auto;html=1;exitX=0.5;exitY=1;exitDx=0;exitDy=0;entryX=0.5;entryY=0;entryDx=0;entryDy=0;endArrow=none;startFill=0;" edge="1" parent="1" source="axN4tA1za8_WEL22JxkP-12" target="axN4tA1za8_WEL22JxkP-13">
          <mxGeometry relative="1" as="geometry" />
        </mxCell>
        <mxCell id="axN4tA1za8_WEL22JxkP-12" value="&lt;div&gt;&lt;code style=&quot;background: transparent; text-shadow: rgba(0, 0, 0, 0.3) 0px 1px; font-family: &amp;quot;Fira Code&amp;quot;, &amp;quot;Fira Mono&amp;quot;, Menlo, Consolas, &amp;quot;DejaVu Sans Mono&amp;quot;, monospace; direction: ltr; text-align: left; white-space: pre; word-spacing: normal; word-break: normal; line-height: 1.5; tab-size: 2; hyphens: none;&quot; class=&quot;language-mermaid&quot;&gt;&lt;span&gt;&lt;span class=&quot;token text&quot;&gt;Zgodność z Przepisami i&lt;/span&gt;&lt;/span&gt;&lt;/code&gt;&lt;/div&gt;&lt;div&gt;&lt;code style=&quot;background: transparent; text-shadow: rgba(0, 0, 0, 0.3) 0px 1px; font-family: &amp;quot;Fira Code&amp;quot;, &amp;quot;Fira Mono&amp;quot;, Menlo, Consolas, &amp;quot;DejaVu Sans Mono&amp;quot;, monospace; direction: ltr; text-align: left; white-space: pre; word-spacing: normal; word-break: normal; line-height: 1.5; tab-size: 2; hyphens: none;&quot; class=&quot;language-mermaid&quot;&gt;&lt;span&gt;&lt;span class=&quot;token text&quot;&gt;Raportowanie&lt;/span&gt;&lt;/span&gt;&lt;/code&gt;&lt;/div&gt;" style="html=1;whiteSpace=wrap;" vertex="1" parent="1">
          <mxGeometry x="470" y="500" width="190" height="50" as="geometry" />
        </mxCell>
        <mxCell id="axN4tA1za8_WEL22JxkP-22" style="edgeStyle=orthogonalEdgeStyle;rounded=0;orthogonalLoop=1;jettySize=auto;html=1;exitX=0;exitY=0.25;exitDx=0;exitDy=0;endArrow=none;startFill=0;" edge="1" parent="1" source="axN4tA1za8_WEL22JxkP-13" target="axN4tA1za8_WEL22JxkP-2">
          <mxGeometry relative="1" as="geometry">
            <Array as="points">
              <mxPoint x="470" y="580" />
              <mxPoint x="390" y="580" />
              <mxPoint x="390" y="520" />
            </Array>
          </mxGeometry>
        </mxCell>
        <mxCell id="axN4tA1za8_WEL22JxkP-13" value="&lt;div&gt;&lt;code style=&quot;background: transparent; text-shadow: rgba(0, 0, 0, 0.3) 0px 1px; font-family: &amp;quot;Fira Code&amp;quot;, &amp;quot;Fira Mono&amp;quot;, Menlo, Consolas, &amp;quot;DejaVu Sans Mono&amp;quot;, monospace; direction: ltr; text-align: left; white-space: pre; word-spacing: normal; word-break: normal; line-height: 1.5; tab-size: 2; hyphens: none; color: light-dark(rgb(0, 0, 0), rgb(255, 255, 255));&quot; class=&quot;language-mermaid&quot;&gt;&lt;span&gt;&lt;span class=&quot;token text&quot;&gt;Bezpieczeństwo i&lt;/span&gt;&lt;/span&gt;&lt;/code&gt;&lt;/div&gt;&lt;div&gt;&lt;code style=&quot;background: transparent; text-shadow: rgba(0, 0, 0, 0.3) 0px 1px; font-family: &amp;quot;Fira Code&amp;quot;, &amp;quot;Fira Mono&amp;quot;, Menlo, Consolas, &amp;quot;DejaVu Sans Mono&amp;quot;, monospace; direction: ltr; text-align: left; white-space: pre; word-spacing: normal; word-break: normal; line-height: 1.5; tab-size: 2; hyphens: none; color: rgba(0, 0, 0, 0);&quot; class=&quot;language-mermaid&quot;&gt;&lt;span&gt;&lt;span class=&quot;token text&quot;&gt; Zapobieganie Oszustwom&lt;/span&gt;&lt;/span&gt;&lt;/code&gt;&lt;/div&gt;" style="html=1;whiteSpace=wrap;" vertex="1" parent="1">
          <mxGeometry x="470" y="590" width="190" height="50" as="geometry" />
        </mxCell>
        <mxCell id="axN4tA1za8_WEL22JxkP-15" style="edgeStyle=orthogonalEdgeStyle;rounded=0;orthogonalLoop=1;jettySize=auto;html=1;exitX=0;exitY=0.5;exitDx=0;exitDy=0;entryX=0.667;entryY=0.667;entryDx=0;entryDy=0;entryPerimeter=0;endArrow=none;startFill=0;" edge="1" parent="1" source="axN4tA1za8_WEL22JxkP-9" target="axN4tA1za8_WEL22JxkP-5">
          <mxGeometry relative="1" as="geometry" />
        </mxCell>
        <mxCell id="axN4tA1za8_WEL22JxkP-16" style="edgeStyle=orthogonalEdgeStyle;rounded=0;orthogonalLoop=1;jettySize=auto;html=1;exitX=0;exitY=0.75;exitDx=0;exitDy=0;entryX=0.6;entryY=0.267;entryDx=0;entryDy=0;entryPerimeter=0;endArrow=none;startFill=0;" edge="1" parent="1" source="axN4tA1za8_WEL22JxkP-9" target="axN4tA1za8_WEL22JxkP-4">
          <mxGeometry relative="1" as="geometry">
            <Array as="points">
              <mxPoint x="450" y="268" />
              <mxPoint x="450" y="300" />
              <mxPoint x="350" y="300" />
              <mxPoint x="350" y="326" />
            </Array>
          </mxGeometry>
        </mxCell>
        <mxCell id="axN4tA1za8_WEL22JxkP-17" style="edgeStyle=orthogonalEdgeStyle;rounded=0;orthogonalLoop=1;jettySize=auto;html=1;exitX=0;exitY=0.25;exitDx=0;exitDy=0;entryX=0.6;entryY=0.367;entryDx=0;entryDy=0;entryPerimeter=0;endArrow=none;startFill=0;" edge="1" parent="1" source="axN4tA1za8_WEL22JxkP-10" target="axN4tA1za8_WEL22JxkP-4">
          <mxGeometry relative="1" as="geometry" />
        </mxCell>
        <mxCell id="axN4tA1za8_WEL22JxkP-18" style="edgeStyle=orthogonalEdgeStyle;rounded=0;orthogonalLoop=1;jettySize=auto;html=1;exitX=0;exitY=0.75;exitDx=0;exitDy=0;entryX=0.7;entryY=0.683;entryDx=0;entryDy=0;entryPerimeter=0;endArrow=none;startFill=0;" edge="1" parent="1" source="axN4tA1za8_WEL22JxkP-10" target="axN4tA1za8_WEL22JxkP-3">
          <mxGeometry relative="1" as="geometry">
            <Array as="points">
              <mxPoint x="440" y="358" />
              <mxPoint x="440" y="390" />
              <mxPoint x="380" y="390" />
              <mxPoint x="380" y="441" />
            </Array>
          </mxGeometry>
        </mxCell>
        <mxCell id="axN4tA1za8_WEL22JxkP-19" style="edgeStyle=orthogonalEdgeStyle;rounded=0;orthogonalLoop=1;jettySize=auto;html=1;exitX=0;exitY=0.25;exitDx=0;exitDy=0;entryX=0.767;entryY=0.4;entryDx=0;entryDy=0;entryPerimeter=0;endArrow=none;startFill=0;" edge="1" parent="1" source="axN4tA1za8_WEL22JxkP-11" target="axN4tA1za8_WEL22JxkP-3">
          <mxGeometry relative="1" as="geometry" />
        </mxCell>
        <mxCell id="axN4tA1za8_WEL22JxkP-20" style="edgeStyle=orthogonalEdgeStyle;rounded=0;orthogonalLoop=1;jettySize=auto;html=1;exitX=0;exitY=0.75;exitDx=0;exitDy=0;entryX=0.6;entryY=0.733;entryDx=0;entryDy=0;entryPerimeter=0;endArrow=none;startFill=0;" edge="1" parent="1" source="axN4tA1za8_WEL22JxkP-11" target="axN4tA1za8_WEL22JxkP-2">
          <mxGeometry relative="1" as="geometry">
            <Array as="points">
              <mxPoint x="470" y="480" />
              <mxPoint x="360" y="480" />
              <mxPoint x="360" y="534" />
            </Array>
          </mxGeometry>
        </mxCell>
        <mxCell id="axN4tA1za8_WEL22JxkP-21" style="edgeStyle=orthogonalEdgeStyle;rounded=0;orthogonalLoop=1;jettySize=auto;html=1;exitX=0;exitY=0.75;exitDx=0;exitDy=0;entryX=0.6;entryY=0.817;entryDx=0;entryDy=0;entryPerimeter=0;endArrow=none;startFill=0;" edge="1" parent="1" source="axN4tA1za8_WEL22JxkP-13" target="axN4tA1za8_WEL22JxkP-1">
          <mxGeometry relative="1" as="geometry" />
        </mxCell>
        <mxCell id="axN4tA1za8_WEL22JxkP-24" style="edgeStyle=orthogonalEdgeStyle;rounded=0;orthogonalLoop=1;jettySize=auto;html=1;exitX=0;exitY=0.25;exitDx=0;exitDy=0;entryX=0.667;entryY=0.7;entryDx=0;entryDy=0;entryPerimeter=0;endArrow=none;startFill=0;" edge="1" parent="1" source="axN4tA1za8_WEL22JxkP-12" target="axN4tA1za8_WEL22JxkP-4">
          <mxGeometry relative="1" as="geometry">
            <Array as="points">
              <mxPoint x="420" y="513" />
              <mxPoint x="420" y="352" />
            </Array>
          </mxGeometry>
        </mxCell>
        <mxCell id="axN4tA1za8_WEL22JxkP-25" style="edgeStyle=orthogonalEdgeStyle;rounded=0;orthogonalLoop=1;jettySize=auto;html=1;exitX=0;exitY=0.75;exitDx=0;exitDy=0;entryX=0.833;entryY=0.883;entryDx=0;entryDy=0;entryPerimeter=0;endArrow=none;startFill=0;" edge="1" parent="1" source="axN4tA1za8_WEL22JxkP-12" target="axN4tA1za8_WEL22JxkP-2">
          <mxGeometry relative="1" as="geometry" />
        </mxCell>
      </root>
    </mxGraphModel>
  </diagram>
</mxfile>
